<svg xmlns="http://www.w3.org/2000/svg" viewBox="0 0 173.85 173.85"><defs><style>.cls-1{isolation:isolate;}.cls-2{fill:#d3d5eb;}.cls-3{opacity:0.7;mix-blend-mode:color-burn;}.cls-4{fill:#586273;}.cls-5{fill:#c3eae9;}.cls-6{fill:#414d62;}.cls-7{fill:#eef2e0;}.cls-8{fill:#fc9669;}.cls-9{fill:#fc793d;}.cls-10{fill:#fff;}.cls-11{fill:#e4e7d9;}</style></defs><g class="cls-1"><g id="layer1"><path class="cls-2" d="M199.77,124.29A86.93,86.93,0,1,1,46.18,68.52c.78-.93,1.57-1.84,2.39-2.74a86.85,86.85,0,0,1,20.6-16.66,87.06,87.06,0,0,1,72-7,86.86,86.86,0,0,1,15.36,7,85.26,85.26,0,0,1,7.16,4.66c1.09.78,2.15,1.59,3.19,2.42A86.75,86.75,0,0,1,199.77,124.29Z" transform="translate(-25.92 -37.36)"/><g class="cls-3"><path class="cls-4" d="M141.79,127H77.28l-1-3.84-1.42-5.39a12.64,12.64,0,0,0-12.17-9.23H48.6a3.5,3.5,0,0,0,0,7H62.67a5.64,5.64,0,0,1,3.41,1.14,5.57,5.57,0,0,1,2,2.93L69,123.2,70,127l1.85,7,8.57,32.45A12.63,12.63,0,0,0,92.6,175.7h40.81a12.63,12.63,0,0,0,11.51-7.48l7.94-24.43A12,12,0,0,0,141.79,127Z" transform="translate(-25.92 -37.36)"/><path class="cls-4" d="M99.47,177a11.38,11.38,0,1,0,11.37,11.38A11.37,11.37,0,0,0,99.47,177Z" transform="translate(-25.92 -37.36)"/><path class="cls-4" d="M126.78,177a11.38,11.38,0,1,0,11.38,11.38A11.37,11.37,0,0,0,126.78,177Z" transform="translate(-25.92 -37.36)"/><path class="cls-4" d="M184.24,111.24,180.05,114,167.82,95.26l-6.55,9.06-4.13-18.15-1.06-4.65H53.57a5,5,0,0,1-5-5V65.78a86.85,86.85,0,0,1,20.6-16.66h89.54a5,5,0,0,1,5,4.66,1.88,1.88,0,0,1,0,.34V75.94L168,79.09l15,11.08L172,92.53Z" transform="translate(-25.92 -37.36)"/><path class="cls-4" d="M99.05,96.07a12.38,12.38,0,1,0,12.38,12.38A12.37,12.37,0,0,0,99.05,96.07Zm2,14.43v6.76H97V110.5H90.24v-4.09H97V99.64h4.09v6.77h6.77v4.09Z" transform="translate(-25.92 -37.36)"/><path class="cls-4" d="M120.9,87.83a6.87,6.87,0,1,0,6.88,6.87A6.87,6.87,0,0,0,120.9,87.83Zm1.14,8v3.75h-2.27V95.84H116V93.56h3.76V89.81H122v3.75h3.76v2.28Z" transform="translate(-25.92 -37.36)"/></g><path class="cls-5" d="M154.86,141.79l-7.94,24.43a12.63,12.63,0,0,1-11.51,7.48H94.6a12.63,12.63,0,0,1-12.14-9.21L73.89,132,72,125l-1-3.84h7.24l1,3.84h64.51a12,12,0,0,1,11.07,16.75Z" transform="translate(-25.92 -37.36)"/><path class="cls-6" d="M153.89,130.52a12,12,0,0,0-10.1-5.48H79.28l-1-3.84-1.42-5.39a12.64,12.64,0,0,0-12.17-9.23H50.6a3.5,3.5,0,0,0,0,7H64.67a5.64,5.64,0,0,1,3.41,1.14,5.57,5.57,0,0,1,2,2.93L71,121.2,72,125l1.85,7,8.57,32.45A12.63,12.63,0,0,0,94.6,173.7h40.81a12.63,12.63,0,0,0,11.51-7.48l7.94-24.43A12,12,0,0,0,153.89,130.52Zm-5.5,8.6-7.93,24.4a5.49,5.49,0,0,1-2,2.27,5.58,5.58,0,0,1-3.05.9H94.6a5.56,5.56,0,0,1-5.38-4L81.13,132h62.66a5,5,0,0,1,4.6,7.08Z" transform="translate(-25.92 -37.36)"/><path class="cls-6" d="M90.09,186.35a11.38,11.38,0,1,1,11.38,11.37A11.37,11.37,0,0,1,90.09,186.35Z" transform="translate(-25.92 -37.36)"/><path class="cls-7" d="M97.1,186.35a4.37,4.37,0,1,1,4.37,4.36A4.37,4.37,0,0,1,97.1,186.35Z" transform="translate(-25.92 -37.36)"/><path class="cls-6" d="M117.4,186.35a11.38,11.38,0,1,1,11.38,11.37A11.37,11.37,0,0,1,117.4,186.35Z" transform="translate(-25.92 -37.36)"/><path class="cls-7" d="M124.42,186.35a4.36,4.36,0,1,1,4.36,4.36A4.37,4.37,0,0,1,124.42,186.35Z" transform="translate(-25.92 -37.36)"/><path class="cls-6" d="M139.28,141.27H91.37a2.12,2.12,0,0,1,0-4.24h47.91a2.12,2.12,0,0,1,0,4.24Z" transform="translate(-25.92 -37.36)"/><path class="cls-6" d="M137.37,150.87H93.28a2.12,2.12,0,0,1,0-4.24h44.09a2.12,2.12,0,0,1,0,4.24Z" transform="translate(-25.92 -37.36)"/><path class="cls-6" d="M135,160.46H95.61a2.12,2.12,0,1,1,0-4.24H135a2.12,2.12,0,0,1,0,4.24Z" transform="translate(-25.92 -37.36)"/><path class="cls-8" d="M165.71,52.12a5,5,0,0,0-5-5H55.57a5,5,0,0,0-5,5v11.2H165.71Z" transform="translate(-25.92 -37.36)"/><path class="cls-9" d="M50.57,63.32v11.2a5,5,0,0,0,5,5H160.71a5,5,0,0,0,5-5V63.32Z" transform="translate(-25.92 -37.36)"/><path class="cls-7" d="M72.67,71H70.12l-.43-2.92h-3.1L66.15,71H63.84L66.41,55H70.1Zm-5.76-5.1h2.43l-1.21-8.11Z" transform="translate(-25.92 -37.36)"/><path class="cls-7" d="M73.84,55h4c2.52,0,3.76,1.4,3.76,4v8.12c0,2.57-1.24,4-3.76,4h-4Zm2.52,2.29V68.74h1.42c.81,0,1.29-.41,1.29-1.56V58.83c0-1.14-.48-1.56-1.29-1.56Z" transform="translate(-25.92 -37.36)"/><path class="cls-7" d="M83.2,55h4c2.52,0,3.76,1.4,3.76,4v8.12c0,2.57-1.24,4-3.76,4h-4Zm2.52,2.29V68.74h1.42c.81,0,1.29-.41,1.29-1.56V58.83c0-1.14-.48-1.56-1.29-1.56Z" transform="translate(-25.92 -37.36)"/><path class="cls-7" d="M95.38,55h7.8v2.29h-2.64V71H98V57.27H95.38Z" transform="translate(-25.92 -37.36)"/><path class="cls-7" d="M104.07,58.83c0-2.56,1.36-4,3.83-4s3.83,1.47,3.83,4v8.35c0,2.57-1.35,4-3.83,4s-3.83-1.47-3.83-4Zm2.53,8.51c0,1.15.5,1.59,1.3,1.59s1.31-.44,1.31-1.59V58.67c0-1.14-.5-1.58-1.31-1.58s-1.3.44-1.3,1.58Z" transform="translate(-25.92 -37.36)"/><path class="cls-7" d="M124.23,65.05v2.13c0,2.57-1.28,4-3.76,4s-3.76-1.47-3.76-4V58.83c0-2.56,1.29-4,3.76-4s3.76,1.47,3.76,4v1.56h-2.38V58.67c0-1.14-.51-1.58-1.31-1.58s-1.31.44-1.31,1.58v8.67c0,1.15.51,1.56,1.31,1.56s1.31-.41,1.31-1.56V65.05Z" transform="translate(-25.92 -37.36)"/><path class="cls-7" d="M133.94,71h-2.55L131,68.12h-3.1L127.42,71h-2.31L127.68,55h3.69Zm-5.76-5.1h2.43l-1.21-8.11Z" transform="translate(-25.92 -37.36)"/><path class="cls-7" d="M140.38,71a5.16,5.16,0,0,1-.23-2V66.54c0-1.49-.5-2-1.65-2h-.87V71h-2.52V55h3.81c2.61,0,3.73,1.22,3.73,3.69v1.27c0,1.65-.52,2.72-1.65,3.25,1.26.53,1.68,1.74,1.68,3.42v2.48a4.78,4.78,0,0,0,.27,2Zm-2.75-13.77v4.94h1c.94,0,1.51-.42,1.51-1.7V58.93c0-1.15-.39-1.66-1.28-1.66Z" transform="translate(-25.92 -37.36)"/><path class="cls-7" d="M143.6,55h7.79v2.29h-2.63V71h-2.53V57.27H143.6Z" transform="translate(-25.92 -37.36)"/><polygon class="cls-10" points="160.32 71.88 148.09 53.17 159.02 50.81 144.05 39.73 129.08 28.64 133.22 46.8 137.35 64.96 143.9 55.9 156.13 74.62 160.32 71.88"/><path class="cls-9" d="M101.05,94.07a12.38,12.38,0,1,0,12.38,12.38A12.37,12.37,0,0,0,101.05,94.07Zm2,14.43v6.76H99V108.5H92.24v-4.1H99V97.64h4.09v6.76h6.77v4.1Z" transform="translate(-25.92 -37.36)"/><path class="cls-6" d="M122.9,85.82a6.88,6.88,0,1,0,6.87,6.88A6.88,6.88,0,0,0,122.9,85.82Zm1.14,8v3.75h-2.28V93.84H118V91.56h3.75V87.8H124v3.76h3.76v2.28Z" transform="translate(-25.92 -37.36)"/><path class="cls-11" d="M72.67,71H70.12l-.43-2.92h-3.1L66.15,71H63.84L66.41,55H70.1Zm-5.76-5.1h2.43l-1.21-8.11Z" transform="translate(-25.92 -37.36)"/><path class="cls-11" d="M73.84,55h4c2.52,0,3.76,1.4,3.76,4v8.12c0,2.57-1.24,4-3.76,4h-4Zm2.52,2.29V68.74h1.42c.81,0,1.29-.41,1.29-1.56V58.83c0-1.14-.48-1.56-1.29-1.56Z" transform="translate(-25.92 -37.36)"/><path class="cls-11" d="M83.2,55h4c2.52,0,3.76,1.4,3.76,4v8.12c0,2.57-1.24,4-3.76,4h-4Zm2.52,2.29V68.74h1.42c.81,0,1.29-.41,1.29-1.56V58.83c0-1.14-.48-1.56-1.29-1.56Z" transform="translate(-25.92 -37.36)"/><path class="cls-11" d="M95.38,55h7.8v2.29h-2.64V71H98V57.27H95.38Z" transform="translate(-25.92 -37.36)"/><path class="cls-11" d="M104.07,58.83c0-2.56,1.36-4,3.83-4s3.83,1.47,3.83,4v8.35c0,2.57-1.35,4-3.83,4s-3.83-1.47-3.83-4Zm2.53,8.51c0,1.15.5,1.59,1.3,1.59s1.31-.44,1.31-1.59V58.67c0-1.14-.5-1.58-1.31-1.58s-1.3.44-1.3,1.58Z" transform="translate(-25.92 -37.36)"/><path class="cls-11" d="M124.23,65.05v2.13c0,2.57-1.28,4-3.76,4s-3.76-1.47-3.76-4V58.83c0-2.56,1.29-4,3.76-4s3.76,1.47,3.76,4v1.56h-2.38V58.67c0-1.14-.51-1.58-1.31-1.58s-1.31.44-1.31,1.58v8.67c0,1.15.51,1.56,1.31,1.56s1.31-.41,1.31-1.56V65.05Z" transform="translate(-25.92 -37.36)"/><path class="cls-11" d="M133.94,71h-2.55L131,68.12h-3.1L127.42,71h-2.31L127.68,55h3.69Zm-5.76-5.1h2.43l-1.21-8.11Z" transform="translate(-25.92 -37.36)"/><path class="cls-11" d="M140.38,71a5.16,5.16,0,0,1-.23-2V66.54c0-1.49-.5-2-1.65-2h-.87V71h-2.52V55h3.81c2.61,0,3.73,1.22,3.73,3.69v1.27c0,1.65-.52,2.72-1.65,3.25,1.26.53,1.68,1.74,1.68,3.42v2.48a4.78,4.78,0,0,0,.27,2Zm-2.75-13.77v4.94h1c.94,0,1.51-.42,1.51-1.7V58.93c0-1.15-.39-1.66-1.28-1.66Z" transform="translate(-25.92 -37.36)"/><path class="cls-11" d="M143.6,55h7.79v2.29h-2.63V71h-2.53V57.27H143.6Z" transform="translate(-25.92 -37.36)"/></g></g></svg>