<svg id="Layer_1" data-name="Layer 1" xmlns="http://www.w3.org/2000/svg" viewBox="0 0 253.04 253.04"><defs><style>.cls-1{fill:none;}.cls-2{fill:#fbe2bc;}.cls-3{fill:#f9ce95;}.cls-4{fill:#c99d66;}.cls-5{fill:#387f29;}</style></defs><rect class="cls-1" width="253.04" height="253.04"/><path class="cls-2" d="M638.64,330.78a20.07,20.07,0,0,0,5.87-14.18v-6.37h-6.37A20,20,0,0,0,624,316.1H547.65a20.07,20.07,0,0,0-14.18-5.87H527.1v6.37A20.07,20.07,0,0,0,533,330.78V459.93a20.07,20.07,0,0,0-5.87,14.18v6.37h6.37a20.11,20.11,0,0,0,14.18-5.87H624a20.07,20.07,0,0,0,14.17,5.87h6.37v-6.37a20.07,20.07,0,0,0-5.87-14.18Z" transform="translate(-459.29 -268.83)"/><path class="cls-3" d="M644.51,316.6v-6.37h-6.37A20,20,0,0,0,624,316.1H606.36V430.58h0a14.68,14.68,0,0,1-14.68,14.67H533v14.68a20.07,20.07,0,0,0-5.87,14.18v6.37h6.37a20.11,20.11,0,0,0,14.18-5.87H624a20.07,20.07,0,0,0,14.17,5.87h6.37v-6.37a20.07,20.07,0,0,0-5.87-14.18V330.78A20.07,20.07,0,0,0,644.51,316.6Z" transform="translate(-459.29 -268.83)"/><path class="cls-4" d="M624,474.61h-7.09l-.86-.86a2.93,2.93,0,0,1,4.15-4.15l2.94,2.93A3,3,0,0,1,624,474.61Z" transform="translate(-459.29 -268.83)"/><path class="cls-4" d="M638.64,452.84v7.09a2.92,2.92,0,0,1-2.07-.86l-2.94-2.93a2.94,2.94,0,0,1,4.16-4.16Z" transform="translate(-459.29 -268.83)"/><path class="cls-5" d="M559.39,316.1h52.84v17.61H559.39Z" transform="translate(-459.29 -268.83)"/><path class="cls-5" d="M559.39,457h52.84v17.61H559.39Z" transform="translate(-459.29 -268.83)"/><path class="cls-5" d="M612.23,348.39H559.39a2.94,2.94,0,1,1,0-5.87h52.84a2.94,2.94,0,0,1,0,5.87Z" transform="translate(-459.29 -268.83)"/><path class="cls-5" d="M612.23,360.13H559.39a2.94,2.94,0,1,1,0-5.87h52.84a2.94,2.94,0,0,1,0,5.87Z" transform="translate(-459.29 -268.83)"/><path class="cls-5" d="M544.71,436.45h7.46a11.72,11.72,0,0,0,20.31,0h26.66a11.73,11.73,0,1,0,19-13.63v-8.64l5.87,5.87v4.66a2.94,2.94,0,0,0,5.87,0v-5.87h0V395.36h0v-5.87a2.94,2.94,0,0,0-5.87,0v4.66L618.1,400V389.48a2.94,2.94,0,0,0-2.94-2.93h-9A23.52,23.52,0,0,0,583.63,366l-.76,0-.75,0a23.52,23.52,0,0,0-22.54,20.53h-6.06a2.94,2.94,0,0,0-2.08.86l-8.8,8.8a2.94,2.94,0,0,0-.86,2.08v35.22A2.94,2.94,0,0,0,544.71,436.45Zm79.26-34v9.31l-4.66-4.65Zm-17.61-10h5.87v14.67h0v12.11a12,12,0,0,0-2.94-.37h-2.93Zm-1,33.83,0,0a5.82,5.82,0,0,1,7.8,0l0,0a5.69,5.69,0,0,1,1.93,4.33,5.88,5.88,0,0,1-5.87,5.87,5.79,5.79,0,0,1-5.5-3.89s0-.07,0-.11a5.1,5.1,0,0,1-.33-1.87A5.69,5.69,0,0,1,605.35,426.25Zm-7.8,4.33H574.07a11.69,11.69,0,0,0-1.58-5.87h26.63A11.64,11.64,0,0,0,597.55,430.58Zm-14.68-58.71a8.81,8.81,0,1,1-8.8,8.81A8.82,8.82,0,0,1,582.87,371.87Zm-14.64,7.84c0,.32,0,.64,0,1a14.68,14.68,0,0,0,29.35,0c0-.33,0-.65,0-1a17.46,17.46,0,0,1,3,9.77,17.61,17.61,0,1,1-32.25-9.77Zm-3,25.28a23.42,23.42,0,0,0,35.22,0v13.85H565.26Zm-2.93,19.72a5.88,5.88,0,0,1,5.87,5.87,5.32,5.32,0,0,1-.33,1.87.76.76,0,0,0,0,.11,5.84,5.84,0,0,1-11,0,.76.76,0,0,0,0-.11,5.32,5.32,0,0,1-.33-1.87A5.88,5.88,0,0,1,562.33,424.71Zm-14.68-2.94h2.93a2.94,2.94,0,1,0,0-5.87h-2.93V413h2.93a2.94,2.94,0,1,0,0-5.87h-2.93v-2.94h2.93a2.94,2.94,0,1,0,0-5.87h-1.72l5.87-5.87h4.66v26.79a11.76,11.76,0,0,0-8.81,11.37h-2.93Z" transform="translate(-459.29 -268.83)"/><path class="cls-4" d="M555.6,321.11a2.95,2.95,0,0,1-4.16,0l-2.93-2.93a2.92,2.92,0,0,1-.86-2.08h7.09l.86.86A3,3,0,0,1,555.6,321.11Z" transform="translate(-459.29 -268.83)"/><path class="cls-4" d="M538,338.72a2.93,2.93,0,0,1-4.15,0l-.86-.85v-7.09a2.9,2.9,0,0,1,2.08.86l2.93,2.93A2.93,2.93,0,0,1,538,338.72Z" transform="translate(-459.29 -268.83)"/><path class="cls-4" d="M624,316.1a3,3,0,0,1-.86,2.08l-2.94,2.93A2.93,2.93,0,0,1,616,317l.86-.86Z" transform="translate(-459.29 -268.83)"/><path class="cls-4" d="M638.64,330.78v7.09l-.85.85a2.94,2.94,0,0,1-4.16-4.15l2.94-2.93A2.88,2.88,0,0,1,638.64,330.78Z" transform="translate(-459.29 -268.83)"/><path class="cls-4" d="M555.6,473.75l-.86.86h-7.09a2.9,2.9,0,0,1,.86-2.08l2.93-2.93a2.94,2.94,0,0,1,4.16,4.15Z" transform="translate(-459.29 -268.83)"/><path class="cls-4" d="M538,456.14l-2.93,2.93a3,3,0,0,1-2.08.86v-7.09l.86-.86a2.94,2.94,0,0,1,4.15,4.16Z" transform="translate(-459.29 -268.83)"/></svg>