<svg xmlns="http://www.w3.org/2000/svg" xmlns:xlink="http://www.w3.org/1999/xlink" viewBox="0 0 191.79 186.43"><defs><style>.cls-1{fill:#f69c82;}.cls-2{fill:none;}.cls-3{isolation:isolate;}.cls-4{clip-path:url(#clip-path);}.cls-5{fill:#586273;opacity:0.15;mix-blend-mode:color-burn;}.cls-6{fill:#f3f6e7;}.cls-7{fill:#eff3e3;}.cls-8{fill:#4d596e;}.cls-9{fill:#fff;opacity:0.5;}.cls-10{clip-path:url(#clip-path-2);}.cls-11{fill:#cdf4f3;opacity:0.2;mix-blend-mode:screen;}</style><clipPath id="clip-path" transform="translate(-232.37 -233.54)"><path class="cls-1" d="M424.16,329.65a87,87,0,1,1-32.9-68.1A86.93,86.93,0,0,1,424.16,329.65Z"/></clipPath><clipPath id="clip-path-2" transform="translate(-232.37 -233.54)"><path class="cls-2" d="M424.16,329.65a87,87,0,1,1-32.9-68.1A86.93,86.93,0,0,1,424.16,329.65Z"/></clipPath></defs><g class="cls-3"><g id="layer1"><path class="cls-1" d="M424.16,329.65a87,87,0,1,1-32.9-68.1A86.93,86.93,0,0,1,424.16,329.65Z" transform="translate(-232.37 -233.54)"/><g class="cls-4"><path class="cls-5" d="M403,376.53l-2.21-10.13-96.55,21-.21-.23,2.37-.51h0l.1,0,.42-.09h0l5.92-1.29h0l2.59-.56h0l6.44-1.4h0l2.66-.58h0l6.44-1.41h0l2.6-.56h0l3.22-.7h0l3.74-.82,2.14-.46h0l6.44-1.41h0l5.81-1.26h0l5.88-1.28h0l.51-.11h0l5.92-1.29h0l5.78-1.26h0l5.91-1.28h0l5.85-1.28h0l3.19-.69h0l3.18-.7h0l6.45-1.4-18.76-86.1-3.19.69h0l-2.28.5-.9.19h0L366,283.51h0l-5.82,1.27-2.68.58h0l-2.63.57-.56.12h0l-6.44,1.41h0l-5.85,1.27h0L336.2,290h0l-6.44,1.41h0l-.42.09-5.43,1.18h0l-2.14.47-3.7.81h0l-6.45,1.4h0l-5.84,1.27h0l-5.85,1.28h0l-1.93.42-1.32.28h0l-2.6.57h0l-6.44,1.4h0l-5.85,1.28h0l-6.44,1.4L292.5,382q-.81-.06-1.65-.06L261.34,255.22a14,14,0,0,0-6.79-9.07l-14.22-8a4.71,4.71,0,0,0-6.64,2.26l-.9,2.09a5.24,5.24,0,0,0,2.26,6.63l13,7.35a6.76,6.76,0,0,1,2.13,1.87,6.86,6.86,0,0,1,1.2,2.57l28.9,124.25a19,19,0,1,0,29.16,11.74Z" transform="translate(-232.37 -233.54)"/></g><rect class="cls-6" x="285.65" y="297.55" width="6.59" height="88.12" transform="translate(-298.46 -164.21) rotate(-12.29)"/><rect class="cls-6" x="303.79" y="293.6" width="6.59" height="88.12" transform="translate(-297.21 -160.43) rotate(-12.29)"/><rect class="cls-6" x="321.93" y="289.65" width="6.59" height="88.12" transform="translate(-295.95 -156.66) rotate(-12.29)"/><rect class="cls-6" x="340.06" y="285.7" width="6.59" height="88.12" transform="translate(-294.7 -152.89) rotate(-12.29)"/><rect class="cls-6" x="358.2" y="281.75" width="6.59" height="88.12" transform="translate(-293.43 -149.13) rotate(-12.29)"/><rect class="cls-6" x="376.34" y="277.8" width="6.59" height="88.12" transform="translate(-292.18 -145.35) rotate(-12.29)"/><rect class="cls-6" x="292.03" y="296.16" width="6.59" height="88.12" transform="translate(-297.98 -162.94) rotate(-12.28)"/><rect class="cls-6" x="310.17" y="292.21" width="6.59" height="88.12" transform="translate(-296.73 -159.16) rotate(-12.28)"/><rect class="cls-6" x="328.3" y="288.26" width="6.59" height="88.12" transform="translate(-295.47 -155.39) rotate(-12.28)"/><rect class="cls-6" x="346.44" y="284.31" width="6.59" height="88.12" transform="translate(-294.22 -151.62) rotate(-12.28)"/><rect class="cls-6" x="364.57" y="280.36" width="6.59" height="88.12" transform="translate(-292.96 -147.86) rotate(-12.28)"/><rect class="cls-6" x="382.71" y="276.41" width="6.59" height="88.12" transform="translate(-291.73 -144.05) rotate(-12.29)"/><rect class="cls-7" x="288.84" y="296.85" width="6.59" height="88.12" transform="translate(-298.24 -163.55) rotate(-12.29)"/><rect class="cls-7" x="306.98" y="292.9" width="6.59" height="88.12" transform="translate(-296.99 -159.77) rotate(-12.29)"/><rect class="cls-7" x="325.11" y="288.95" width="6.59" height="88.12" transform="translate(-295.76 -155.95) rotate(-12.3)"/><rect class="cls-7" x="343.25" y="285" width="6.59" height="88.12" transform="translate(-294.48 -152.22) rotate(-12.29)"/><rect class="cls-7" x="361.39" y="281.05" width="6.59" height="88.12" transform="translate(-293.21 -148.46) rotate(-12.29)"/><rect class="cls-7" x="379.52" y="277.1" width="6.59" height="88.12" transform="translate(-291.96 -144.69) rotate(-12.29)"/><rect class="cls-7" x="297.94" y="294.87" width="6.59" height="88.12" transform="translate(-297.61 -161.64) rotate(-12.29)"/><rect class="cls-7" x="316.08" y="290.92" width="6.59" height="88.12" transform="translate(-296.36 -157.87) rotate(-12.29)"/><rect class="cls-7" x="334.22" y="286.97" width="6.59" height="88.12" transform="translate(-295.1 -154.1) rotate(-12.29)"/><rect class="cls-7" x="352.35" y="283.02" width="6.59" height="88.12" transform="translate(-293.84 -150.35) rotate(-12.29)"/><rect class="cls-7" x="370.49" y="279.07" width="6.59" height="88.12" transform="translate(-292.62 -146.5) rotate(-12.3)"/><rect class="cls-8" x="376.97" y="359.64" width="11.96" height="1.64" transform="translate(-300.31 -143.78) rotate(-12.29)"/><rect class="cls-8" x="376.19" y="343.34" width="1.95" height="15.42" transform="translate(-298.55 -145.04) rotate(-12.31)"/><rect class="cls-8" x="383.77" y="341.69" width="1.95" height="15.42" transform="translate(-297.79 -143.87) rotate(-12.26)"/><polygon class="cls-8" points="143.2 110.22 140.67 111.78 141.52 109.1 142.38 106.43 144.27 108.51 146.16 110.58 143.2 110.22"/><polygon class="cls-8" points="150.81 108.56 148.27 110.13 149.13 107.45 149.98 104.77 151.87 106.85 153.76 108.93 150.81 108.56"/><path class="cls-8" d="M358.61,347.91l.81-3.38-2.32.51a28.82,28.82,0,0,0,1,7.9l2.51-4.91Z" transform="translate(-232.37 -233.54)"/><path class="cls-8" d="M369.26,364.26h0l-8,1.75v0c-.09-.41.05-.48.29-.84a1.59,1.59,0,0,1,1-.71l1.56-.35a59.26,59.26,0,0,0-1.09-6.66c-2.47.26-3.91-1.6-4.75-3.94l3.55-6-2.16-.55,1.13-2.74,3.49-.76s5.8,11.67-.15,13.72a63.22,63.22,0,0,0,1.74,6.52l1.55-.34a1.67,1.67,0,0,1,1.22.23C369,363.85,369.18,363.86,369.26,364.26Z" transform="translate(-232.37 -233.54)"/><path class="cls-8" d="M299,345.1l2.54-1.08.76,1.79-2.54,1.08,2.2,5.18-2,.84-5.33-12.54,5.21-2.21.76,1.79-3.24,1.38Z" transform="translate(-232.37 -233.54)"/><path class="cls-8" d="M310.28,348.54a4.27,4.27,0,0,1-.84-1.47l-.84-2c-.49-1.16-1.07-1.42-2-1l-.68.29,2.17,5.1-2,.84-5.33-12.53,3-1.27c2-.87,3.32-.29,4.14,1.64l.42,1a2.72,2.72,0,0,1-.2,3.09c1.15,0,1.88.8,2.44,2.11l.82,1.93a4.07,4.07,0,0,0,.86,1.43Zm-6.72-9.83,1.64,3.85.77-.33c.73-.31,1-.82.61-1.83l-.52-1.23c-.38-.9-.85-1.16-1.55-.87Z" transform="translate(-232.37 -233.54)"/><path class="cls-8" d="M312.24,339.14l2.7-1.15.76,1.79-2.7,1.15,1.56,3.67,3.4-1.45.76,1.79-5.37,2.29L308,334.7l5.38-2.29.76,1.79-3.41,1.45Z" transform="translate(-232.37 -233.54)"/><path class="cls-8" d="M318.83,336.34l2.7-1.15.76,1.79-2.7,1.15,1.56,3.67,3.4-1.45.76,1.79-5.37,2.29-5.33-12.54,5.37-2.28.76,1.79-3.4,1.45Z" transform="translate(-232.37 -233.54)"/><path class="cls-8" d="M324,327.91l3.12-1.32c2-.84,3.4-.16,4.25,1.85l2.7,6.34c.85,2,.35,3.5-1.62,4.34l-3.12,1.33Zm2.74,1,3.8,8.95,1.11-.47c.63-.27.87-.75.49-1.65l-2.78-6.51c-.38-.9-.89-1.06-1.52-.8Z" transform="translate(-232.37 -233.54)"/><path class="cls-8" d="M335.49,329.25l2.71-1.15.76,1.79L336.25,331l1.56,3.67,3.41-1.44.76,1.79-5.37,2.28-5.33-12.53,5.37-2.29.76,1.79-3.4,1.45Z" transform="translate(-232.37 -233.54)"/><path class="cls-8" d="M337.87,322l2-.84,4.57,10.74,3.24-1.38.76,1.79-5.21,2.22Z" transform="translate(-232.37 -233.54)"/><path class="cls-8" d="M343.93,319.43l2-.84,5.33,12.53-2,.84Z" transform="translate(-232.37 -233.54)"/><path class="cls-8" d="M354.65,326.94l-2.84-10.86,1.81-.77L357,328.66l-2.93,1.25-7.26-11.71,2-.84Z" transform="translate(-232.37 -233.54)"/><path class="cls-8" d="M358.75,319.36l2.7-1.15.76,1.79-2.7,1.16,1.56,3.67,3.4-1.45.76,1.79-5.37,2.28-5.33-12.53,5.37-2.28.76,1.79-3.4,1.44Z" transform="translate(-232.37 -233.54)"/><path class="cls-8" d="M370.57,322.9a4.18,4.18,0,0,1-.84-1.46l-.84-2c-.49-1.17-1.07-1.43-2-1.05l-.68.29,2.17,5.11-2,.83-5.33-12.53,3-1.26c2-.87,3.32-.3,4.14,1.64l.42,1a2.71,2.71,0,0,1-.2,3.09c1.16,0,1.88.81,2.44,2.11l.82,1.94a4.07,4.07,0,0,0,.86,1.43Zm-6.72-9.83,1.64,3.85.77-.33c.73-.31,1-.82.61-1.82l-.52-1.24c-.38-.89-.85-1.16-1.55-.86Z" transform="translate(-232.37 -233.54)"/><path class="cls-8" d="M373.54,316.73l-6.05-7.32,2.06-.88,3.93,5.08-.92-6.36,1.88-.79,1.07,9.43,1.77,4.16-2,.83Z" transform="translate(-232.37 -233.54)"/><rect class="cls-9" x="328.2" y="286.98" width="18.56" height="88.12" transform="translate(-295.09 -154.13) rotate(-12.29)"/><rect class="cls-8" x="303.94" y="372.94" width="100.1" height="10.37" transform="translate(-304.73 -149.54) rotate(-12.29)"/><path class="cls-8" d="M295.42,393.25l-33.08-142a14,14,0,0,0-6.79-9.07l-14.22-8a4.71,4.71,0,0,0-6.64,2.26l-.9,2.09a5.24,5.24,0,0,0,2.26,6.63l13,7.35a6.76,6.76,0,0,1,2.13,1.87,6.86,6.86,0,0,1,1.2,2.57l32.47,139.57Z" transform="translate(-232.37 -233.54)"/><rect class="cls-8" x="303.94" y="372.94" width="100.1" height="10.37" transform="translate(-304.73 -149.54) rotate(-12.29)"/><path class="cls-8" d="M295.42,393.25l-33.08-142a14,14,0,0,0-6.79-9.07l-14.22-8a4.71,4.71,0,0,0-6.64,2.26l-.9,2.09a5.24,5.24,0,0,0,2.26,6.63l13,7.35a6.76,6.76,0,0,1,2.13,1.87,6.86,6.86,0,0,1,1.2,2.57l32.47,139.57Z" transform="translate(-232.37 -233.54)"/><g class="cls-10"><path class="cls-8" d="M310.47,392.9a19,19,0,1,1-22.63-14.53A19,19,0,0,1,310.47,392.9Z" transform="translate(-232.37 -233.54)"/><path class="cls-11" d="M310.47,392.9a19,19,0,1,1-22.63-14.53A19,19,0,0,1,310.47,392.9Z" transform="translate(-232.37 -233.54)"/><path class="cls-8" d="M301.23,394.92a9.56,9.56,0,1,1-11.38-7.31A9.56,9.56,0,0,1,301.23,394.92Z" transform="translate(-232.37 -233.54)"/></g></g></g></svg>