<svg id="Layer_1" data-name="Layer 1" xmlns="http://www.w3.org/2000/svg" viewBox="0 0 253.04 253.04"><defs><style>.cls-1{fill:#b0b5ca;}.cls-2{fill:#6d7486;}.cls-3{fill:#ccd3df;}.cls-4{fill:none;}</style></defs><path class="cls-1" d="M548.57,362.65V465l-9.77,16.52L529,465V362.65Z" transform="translate(-444.48 -265.05)"/><path class="cls-1" d="M608.84,319.9V467.7l-9.76,16.51L589.3,467.7V319.9Z" transform="translate(-444.48 -265.05)"/><path class="cls-2" d="M518.29,351.72h41a10.79,10.79,0,0,0-10.73,10.87v.06H529a10.8,10.8,0,0,0-10.68-10.93Z" transform="translate(-444.48 -265.05)"/><path class="cls-2" d="M578.57,309h41a10.8,10.8,0,0,0-10.74,10.87v.06H589.3A10.8,10.8,0,0,0,578.63,309Z" transform="translate(-444.48 -265.05)"/><path class="cls-3" d="M563,349.73v2H514.58v-2a8.05,8.05,0,0,1,8-8.06H555a8.05,8.05,0,0,1,8.06,8.05Z" transform="translate(-444.48 -265.05)"/><path class="cls-3" d="M627.42,307v2H570.73v-2a8.05,8.05,0,0,1,8-8.06h40.59a8.05,8.05,0,0,1,8,8.05Z" transform="translate(-444.48 -265.05)"/><path class="cls-3" d="M600.18,467.7V319.9H589.3V467.7l9.78,16.51,5.43-9.19Z" transform="translate(-444.48 -265.05)"/><path class="cls-1" d="M533.51,341.67H522.64a8.05,8.05,0,0,0-8.06,8.05h0v2h10.87v-2a8.06,8.06,0,0,1,8.06-8.06Z" transform="translate(-444.48 -265.05)"/><path class="cls-1" d="M589.66,298.92H578.78a8.05,8.05,0,0,0-8,8.05h0v2H581.6v-2a8.06,8.06,0,0,1,8-8.06Z" transform="translate(-444.48 -265.05)"/><path class="cls-3" d="M539.9,465V362.65H529V465l9.77,16.52,5.44-9.19Z" transform="translate(-444.48 -265.05)"/><rect class="cls-4" width="253.04" height="253.04"/></svg>