<svg id="Layer_1" data-name="Layer 1" xmlns="http://www.w3.org/2000/svg" viewBox="0 0 253.04 253.04"><defs><style>.cls-1{fill:none;}.cls-2{fill:#e5e5e5;}.cls-3{fill:#c8c6cd;}.cls-4{fill:#57555c;}.cls-5{fill:#aeadb3;}.cls-6{fill:#fea832;}.cls-7{fill:#3c3a41;}.cls-8{fill:#fe9923;}</style></defs><rect class="cls-1" width="253.04" height="253.04"/><path class="cls-2" d="M631.89,407.84v61.77a16.62,16.62,0,0,1-16.64,16.65H526.48a16.63,16.63,0,0,1-16.65-16.65V363.46h55.49l5.54,3.66Z" transform="translate(-444.34 -265.05)"/><path class="cls-3" d="M631.89,407.84v61.77a16.62,16.62,0,0,1-16.64,16.65H570.86V367.12Z" transform="translate(-444.34 -265.05)"/><path class="cls-4" d="M631.89,357.91v5.55H620.8v-5.55a49.94,49.94,0,1,0-99.87,0v5.55h-11.1v-5.55a61,61,0,1,1,122.06,0Z" transform="translate(-444.34 -265.05)"/><path d="M626.35,363.46h-111a5.55,5.55,0,0,1,0-11.1h111a5.55,5.55,0,0,1,0,11.1Z" transform="translate(-444.34 -265.05)"/><path class="cls-5" d="M565.32,374.55H509.83a11.1,11.1,0,0,1-11.09-11.09h0a11.1,11.1,0,0,1,11.09-11.1h55.49l11.09,13.18Z" transform="translate(-444.34 -265.05)"/><path class="cls-6" d="M643,363.46a11.12,11.12,0,0,1-11.1,11.09v33.29a11.1,11.1,0,1,1-22.19,0V430a11.1,11.1,0,1,1-22.19,0V385.65a11.12,11.12,0,0,1-11.1,11.09,10.72,10.72,0,0,1-5.55-1.55,10.91,10.91,0,0,1-5.54-9.54V352.36h66.57A11.13,11.13,0,0,1,643,363.46Z" transform="translate(-444.34 -265.05)"/><path class="cls-7" d="M631.89,357.91v5.55H620.8v-5.55A49.88,49.88,0,0,0,570.86,308V296.88A61,61,0,0,1,631.89,357.91Z" transform="translate(-444.34 -265.05)"/><path class="cls-8" d="M643,363.46a11.12,11.12,0,0,1-11.1,11.09v33.29a11.1,11.1,0,1,1-22.19,0V430a11.1,11.1,0,1,1-22.19,0V385.65a11.12,11.12,0,0,1-11.1,11.09,10.72,10.72,0,0,1-5.55-1.55V352.36h61A11.13,11.13,0,0,1,643,363.46Z" transform="translate(-444.34 -265.05)"/></svg>