<svg id="Layer_1" data-name="Layer 1" xmlns="http://www.w3.org/2000/svg" viewBox="0 0 253.04 253.04"><defs><style>.cls-1{fill:none;}.cls-2{fill:#3c3a41;}.cls-3{fill:#e1e4fb;}.cls-4{fill:#713708;}.cls-5{fill:#994c0f;}.cls-6{fill:#fea832;}.cls-7{fill:#e50027;}.cls-8{fill:#fedb41;}.cls-9{fill:#fd003a;}.cls-10{fill:#c1001f;}</style></defs><rect class="cls-1" width="253.04" height="253.04"/><path class="cls-2" d="M636.46,479.62A27.63,27.63,0,1,1,664.08,452,27.66,27.66,0,0,1,636.46,479.62Z" transform="translate(-443.26 -270.22)"/><path class="cls-3" d="M636.46,468.57A16.58,16.58,0,1,1,653,452,16.6,16.6,0,0,1,636.46,468.57Z" transform="translate(-443.26 -270.22)"/><path class="cls-4" d="M641.87,453.32a5.54,5.54,0,0,1-5.41,4.2,5.4,5.4,0,0,1-1.33-.11l-45.2-11.27-3.21-.78a5.49,5.49,0,0,1-4-6.74,5.27,5.27,0,0,1,6.63-4l9,2.21,39.45,9.73A5.65,5.65,0,0,1,641.87,453.32Z" transform="translate(-443.26 -270.22)"/><path class="cls-5" d="M531.31,425.68a5.53,5.53,0,0,1-5.37,4.21,5.92,5.92,0,0,1-1.31-.15l-5.42-1.33-.24-.06a27.52,27.52,0,0,1-20.65-26.08c0-.23,0-.45,0-.67V330.43a5.53,5.53,0,0,0-5.52-5.53H481a5.53,5.53,0,1,1,0-11h11.79a16.59,16.59,0,0,1,16.57,16.58V401.6c0,.22,0,.44,0,.66a16.44,16.44,0,0,0,12.47,15.41l5.41,1.32A5.54,5.54,0,0,1,531.31,425.68Z" transform="translate(-443.26 -270.22)"/><path class="cls-4" d="M531.31,425.68a5.53,5.53,0,0,1-5.37,4.21,5.92,5.92,0,0,1-1.31-.15l-5.42-1.33-.24-.06a27.52,27.52,0,0,1-20.65-26.08h11.06a16.44,16.44,0,0,0,12.47,15.41l5.41,1.32A5.54,5.54,0,0,1,531.31,425.68Z" transform="translate(-443.26 -270.22)"/><path class="cls-6" d="M563,378.54a5.49,5.49,0,0,1-3.9,1.62H525.94a5.53,5.53,0,0,1-3.91-9.43l25.31-25.31a16.63,16.63,0,0,1,23.51,0l8.73,8.73a5.52,5.52,0,0,1,0,7.81Z" transform="translate(-443.26 -270.22)"/><path class="cls-4" d="M531.5,472.41a11.14,11.14,0,0,1-4.44-.94,11,11,0,0,1-6.64-10.08v-37a5.53,5.53,0,0,1,11.05,0v37l32.58-30.56a5.53,5.53,0,0,1,7.55,8.07L539,469.4A10.91,10.91,0,0,1,531.5,472.41Z" transform="translate(-443.26 -270.22)"/><path class="cls-7" d="M631.48,400.49l-33.15,36.36-8.4,9.29-3.21-.78-66.3-16.69V396.74a5.47,5.47,0,0,1,5.52-5.53H627.39a5.53,5.53,0,0,1,4.09,9.28Z" transform="translate(-443.26 -270.22)"/><path class="cls-8" d="M647.51,380.16H559.1a5.52,5.52,0,0,1-3.91-9.43l36.36-36.36a16.62,16.62,0,0,1,23.5,0l36.36,36.36a5.52,5.52,0,0,1-3.9,9.43Z" transform="translate(-443.26 -270.22)"/><path class="cls-9" d="M520.42,374.63v27.63H629.87l21.73-23.87a6.13,6.13,0,0,0,1.43-3.76Z" transform="translate(-443.26 -270.22)"/><path class="cls-10" d="M664.08,374.63a5.52,5.52,0,0,1-5.52,5.53H520.42v-5.53a5.52,5.52,0,0,1,5.52-5.52H658.56A5.52,5.52,0,0,1,664.08,374.63Z" transform="translate(-443.26 -270.22)"/></svg>