<svg xmlns="http://www.w3.org/2000/svg" viewBox="0 0 173.85 173.85"><defs><style>.cls-1{isolation:isolate;}.cls-2{fill:#a0e6c3;}.cls-3{fill:#587273;mix-blend-mode:color-burn;}.cls-3,.cls-9{opacity:0.2;}.cls-4{fill:#e2fff2;}.cls-5,.cls-9{fill:#c2e9d1;}.cls-6{fill:#426263;}.cls-7{fill:#7fbdae;}.cls-8{fill:#fff;opacity:0.6;}.cls-8,.cls-9{mix-blend-mode:screen;}</style></defs><g class="cls-1"><g id="layer1"><path class="cls-2" d="M424.16,124.29A86.93,86.93,0,1,1,270.57,68.51c1.6-1.91,3.28-3.76,5.06-5.53a86.92,86.92,0,0,1,148.53,61.31Z" transform="translate(-250.31 -37.36)"/><path class="cls-3" d="M409.83,76.48v87.86a5.5,5.5,0,0,1-5.5,5.5H331.66l-7.18,29.22c-.7,2.83-4.53,4.33-8.57,3.33s-6.74-4.09-6.05-6.92l6.3-25.63h-35a5.5,5.5,0,0,1-5.5-5.5V54.12a5.5,5.5,0,0,1,5.5-5.5H380a86,86,0,0,1,11.23,7.58A87.17,87.17,0,0,1,409.83,76.48Z" transform="translate(-250.31 -37.36)"/><path class="cls-4" d="M273.63,60V160.34a5.5,5.5,0,0,0,5.5,5.5H402.32a5.5,5.5,0,0,0,5.5-5.5V60Z" transform="translate(-250.31 -37.36)"/><rect class="cls-5" x="31.69" y="44.66" width="33.69" height="34.51"/><rect class="cls-5" x="73.58" y="44.66" width="33.69" height="34.51"/><rect class="cls-5" x="115.47" y="44.66" width="33.69" height="34.51"/><rect class="cls-5" x="31.69" y="84.14" width="33.69" height="34.51"/><rect class="cls-5" x="73.58" y="84.14" width="33.69" height="34.51"/><rect class="cls-5" x="115.47" y="84.14" width="33.69" height="34.51"/><path class="cls-5" d="M407.82,50.12a5.5,5.5,0,0,0-5.5-5.5H279.13a5.5,5.5,0,0,0-5.5,5.5V60H407.82Z" transform="translate(-250.31 -37.36)"/><path class="cls-4" d="M398,52.32a3.35,3.35,0,1,1,3.34,3.34A3.34,3.34,0,0,1,398,52.32Z" transform="translate(-250.31 -37.36)"/><path class="cls-4" d="M388.62,52.32A3.35,3.35,0,1,1,392,55.66,3.35,3.35,0,0,1,388.62,52.32Z" transform="translate(-250.31 -37.36)"/><path class="cls-4" d="M379.27,52.32a3.35,3.35,0,1,1,3.35,3.34A3.35,3.35,0,0,1,379.27,52.32Z" transform="translate(-250.31 -37.36)"/><rect class="cls-5" x="32.05" y="29.81" width="116.65" height="3.85"/><rect class="cls-5" x="32.05" y="36.68" width="116.65" height="3.85"/><rect class="cls-6" x="323.64" y="134.06" width="10.08" height="8.42" transform="translate(-134.3 387.12) rotate(-76.2)"/><path class="cls-7" d="M344.7,73.06A33.16,33.16,0,1,0,369,113.18,33.17,33.17,0,0,0,344.7,73.06Zm-13.88,56.48a25,25,0,1,1,30.24-18.31A25,25,0,0,1,330.82,129.54Z" transform="translate(-250.31 -37.36)"/><path class="cls-6" d="M307.86,191.47c-.69,2.83,2,5.93,6.05,6.92h0c4,1,7.87-.5,8.56-3.33l11.45-46.59c.7-2.83-2-5.93-6.05-6.92h0c-4-1-7.87.5-8.56,3.33Z" transform="translate(-250.31 -37.36)"/><path class="cls-8" d="M312.51,99.3a25,25,0,1,1,18.31,30.24A25,25,0,0,1,312.51,99.3Z" transform="translate(-250.31 -37.36)"/><path class="cls-5" d="M357.94,110.3q-.22.92-.51,1.77a21.75,21.75,0,0,0-42.09-10.34c.09-.6.21-1.2.36-1.81a21.75,21.75,0,1,1,42.24,10.38Z" transform="translate(-250.31 -37.36)"/><path class="cls-9" d="M304.58,97.35a33.16,33.16,0,0,0,20.28,38.84l-1.29,5.23c-2.17.45-3.83,1.69-4.26,3.46l-11.45,46.59c-.69,2.83,2,5.93,6.05,6.92L344.7,73.06A33.17,33.17,0,0,0,304.58,97.35Z" transform="translate(-250.31 -37.36)"/></g></g></svg>