<svg id="Layer_1" data-name="Layer 1" xmlns="http://www.w3.org/2000/svg" viewBox="0 0 253.04 253.04"><defs><style>.cls-1{fill:none;}.cls-2{fill:#7f8c8d;}.cls-3{fill:#d1d4d1;}.cls-4{fill:#ecf0f1;}.cls-5{fill:#c5ccd4;}.cls-6{fill:#95a5a5;}</style></defs><rect class="cls-1" width="253.04" height="253.04"/><path class="cls-2" d="M648.94,389.82v4.84L586.05,460h-38.7V401.92h38.7l31.45-31.45-1.21,6a13.28,13.28,0,0,0,13.3,13.3Z" transform="translate(-452.27 -272.98)"/><polygon class="cls-3" points="196.67 116.85 196.67 131.36 182.15 145.87 133.78 196.67 128.94 196.67 128.94 182.15 133.78 182.15 182.15 131.36 196.67 116.85"/><polygon class="cls-4" points="196.67 56.38 196.67 63.63 133.78 124.1 56.38 124.1 56.38 119.26 119.26 56.38 196.67 56.38"/><polygon class="cls-2" points="87.82 150.71 90.24 150.71 90.24 184.57 56.38 184.57 56.38 182.15 87.82 150.71"/><polygon class="cls-3" points="196.67 56.38 196.67 70.89 133.78 133.78 131.36 133.78 131.36 119.26 133.78 119.26 196.67 56.38"/><path class="cls-5" d="M554.61,420.06v21.77a13.28,13.28,0,0,0,13.3,13.3h18.14v14.51h-77.4V455.13h18.14a13.28,13.28,0,0,0,13.3-13.3V420.06a13.28,13.28,0,0,0-13.3-13.3H508.65V392.24h77.4v14.52H567.91a13.28,13.28,0,0,0-13.3,13.3Z" transform="translate(-452.27 -272.98)"/><path class="cls-6" d="M566.7,445.33a2.38,2.38,0,0,1-1.72-.7,2.42,2.42,0,1,1,4.14-1.71,2.39,2.39,0,0,1-2.42,2.41Z" transform="translate(-452.27 -272.98)"/><path class="cls-6" d="M574,437.74a2.42,2.42,0,0,1-1.75-4.09l2.42-2.53a2.42,2.42,0,0,1,2.32-.69,2.43,2.43,0,0,1,1.18,4L575.71,437a2.42,2.42,0,0,1-1.75.75Z" transform="translate(-452.27 -272.98)"/><path class="cls-6" d="M583.63,427.6a2.4,2.4,0,0,1-2.22-1.46,2.43,2.43,0,0,1,.47-2.63L584.3,421a2.42,2.42,0,1,1,3.5,3.34l-2.42,2.53a2.4,2.4,0,0,1-1.75.75Z" transform="translate(-452.27 -272.98)"/><path class="cls-6" d="M593.31,417.47a2.42,2.42,0,0,1-1.75-4.09l2.42-2.54a2.42,2.42,0,1,1,3.5,3.34l-2.42,2.54A2.42,2.42,0,0,1,593.31,417.47Z" transform="translate(-452.27 -272.98)"/><path class="cls-6" d="M603,407.33a2.42,2.42,0,0,1-1.75-4.09l2.42-2.53a2.42,2.42,0,0,1,3.5,3.34l-2.42,2.53a2.4,2.4,0,0,1-1.75.75Z" transform="translate(-452.27 -272.98)"/><path class="cls-6" d="M612.66,397.2a2.4,2.4,0,0,1-1.72-.72,2.32,2.32,0,0,1-.7-1.7,2.42,2.42,0,0,1,4.13-1.72,2.54,2.54,0,0,1,.71,1.72,2.33,2.33,0,0,1-.71,1.7,2.4,2.4,0,0,1-1.71.72Z" transform="translate(-452.27 -272.98)"/></svg>