<svg id="Layer_1" data-name="Layer 1" xmlns="http://www.w3.org/2000/svg" viewBox="0 0 253.04 253.04"><defs><style>.cls-1{fill:none;}.cls-2{fill:#9ebbdb;}.cls-3{fill:#82a0d2;}.cls-4{fill:#c9dff7;}.cls-5{fill:#5877a6;}.cls-6{fill:#ffb500;}.cls-7{fill:#ff9300;}.cls-8{fill:#a3efff;}.cls-9{fill:#6ad9eb;}</style></defs><rect class="cls-1" width="253.04" height="253.04"/><path class="cls-2" d="M600.84,378.51H575.33V348.25h25.51Z" transform="translate(-461.98 -276.97)"/><path class="cls-3" d="M588.09,348.25h12.75v30.26H588.09Z" transform="translate(-461.98 -276.97)"/><path class="cls-4" d="M656,429.19H627.48V411.14H609.94a27,27,0,0,1-43.7,0h-33v-31h32.58a27,27,0,0,1,44.5,0h18.73a27,27,0,0,1,27,27Z" transform="translate(-461.98 -276.97)"/><path class="cls-2" d="M609.94,411.14h17.54v18.05H656v-22.1a27,27,0,0,0-27-27H610.34a27,27,0,0,0-22.25-11.74v53.92A27.1,27.1,0,0,0,609.94,411.14Z" transform="translate(-461.98 -276.97)"/><path class="cls-3" d="M650.88,446.23H632.7a9.91,9.91,0,0,1-9.41-13.05l4.15-12.46h28.69l4.16,12.46a9.92,9.92,0,0,1-9.41,13.05Z" transform="translate(-461.98 -276.97)"/><path class="cls-5" d="M656.13,420.72H641.68v25.51h9.2a9.92,9.92,0,0,0,9.41-13.05Z" transform="translate(-461.98 -276.97)"/><path class="cls-6" d="M608.63,356.73H568.29a12.76,12.76,0,0,1,0-25.52h40.34a12.76,12.76,0,0,1,0,25.52Z" transform="translate(-461.98 -276.97)"/><path class="cls-7" d="M608.63,331.21H588.09v25.52h20.54a12.76,12.76,0,0,0,0-25.52Z" transform="translate(-461.98 -276.97)"/><path class="cls-8" d="M650.77,466.3a9.1,9.1,0,1,1-18.18,0c0-5.24,9.09-20.07,9.09-20.07S650.77,461.06,650.77,466.3Z" transform="translate(-461.98 -276.97)"/><path class="cls-9" d="M650.77,466.3c0-5.24-9.09-20.07-9.09-20.07v29.54A9.28,9.28,0,0,0,650.77,466.3Z" transform="translate(-461.98 -276.97)"/><path class="cls-2" d="M531.85,417.16h-11.4a4.23,4.23,0,0,1-4.23-4.24V378.83a4.23,4.23,0,0,1,4.23-4.23h11.4a9.89,9.89,0,0,1,9.88,9.88v22.79A9.9,9.9,0,0,1,531.85,417.16Z" transform="translate(-461.98 -276.97)"/><path class="cls-3" d="M516.22,395.88v17a4.23,4.23,0,0,0,4.23,4.24h11.4a9.9,9.9,0,0,0,9.88-9.89V395.88Z" transform="translate(-461.98 -276.97)"/></svg>