<svg id="Layer_1" data-name="Layer 1" xmlns="http://www.w3.org/2000/svg" viewBox="0 0 253.04 253.04"><defs><style>.cls-1{fill:none;}.cls-2{fill:#7f8499;}.cls-3{fill:#959cb5;}</style></defs><rect class="cls-1" width="253.04" height="253.04"/><path class="cls-2" d="M538.88,389.85l-47.39-47.39a1.08,1.08,0,0,0-1.85.77v21a2.17,2.17,0,0,0,.64,1.54l48.61,48.61V389.85Z" transform="translate(-447.12 -273.48)"/><path class="cls-3" d="M538.88,389.85l-47.39-47.39a1.08,1.08,0,0,0-1.85.77v9.67l49.25,49.24Z" transform="translate(-447.12 -273.48)"/><path class="cls-2" d="M609.08,386.31l-.71,23.88,47.37,47.36a1.08,1.08,0,0,0,1.85-.77V435.72a2.17,2.17,0,0,0-.64-1.53Z" transform="translate(-447.12 -273.48)"/><path class="cls-3" d="M609.08,386.31l-.36,11.94,48.87,48.86V435.72a2.17,2.17,0,0,0-.64-1.53Z" transform="translate(-447.12 -273.48)"/><path class="cls-3" d="M534.75,426.63h0a8.68,8.68,0,0,1,0-12.29l41-41a8.68,8.68,0,0,1,12.29,0h0a8.68,8.68,0,0,1,0,12.29l-41,41A8.68,8.68,0,0,1,534.75,426.63Z" transform="translate(-447.12 -273.48)"/><path class="cls-2" d="M540.89,420.49l41-41a8.65,8.65,0,0,1,8.36-2.22,8.55,8.55,0,0,0-2.22-3.92,8.68,8.68,0,0,0-12.29,0l-41,41a8.68,8.68,0,0,0,0,12.29,8.55,8.55,0,0,0,3.92,2.22A8.65,8.65,0,0,1,540.89,420.49Z" transform="translate(-447.12 -273.48)"/><path class="cls-3" d="M559.33,426.63h0a8.68,8.68,0,0,1,0-12.29l41-41a8.68,8.68,0,0,1,12.29,0h0a8.7,8.7,0,0,1,0,12.29l-41,41A8.68,8.68,0,0,1,559.33,426.63Z" transform="translate(-447.12 -273.48)"/><path class="cls-2" d="M565.47,420.49l41-41a8.65,8.65,0,0,1,8.36-2.22,8.55,8.55,0,0,0-2.22-3.92,8.68,8.68,0,0,0-12.29,0l-41,41a8.68,8.68,0,0,0,0,12.29,8.55,8.55,0,0,0,3.92,2.22A8.65,8.65,0,0,1,565.47,420.49Z" transform="translate(-447.12 -273.48)"/><path class="cls-3" d="M563.42,373.38h0a8.68,8.68,0,0,1,0,12.29l-71.88,71.88a1.08,1.08,0,0,1-1.85-.77V435.72a2.17,2.17,0,0,1,.64-1.53l60.81-60.81A8.68,8.68,0,0,1,563.42,373.38Z" transform="translate(-447.12 -273.48)"/><path class="cls-2" d="M557.28,379.52a8.65,8.65,0,0,1,8.36-2.22,8.49,8.49,0,0,0-3.14-4.72,8.89,8.89,0,0,0-11.55,1l-60.63,60.63a2.17,2.17,0,0,0-.64,1.53v11.39Z" transform="translate(-447.12 -273.48)"/><path class="cls-3" d="M583.9,426.63h0a8.7,8.7,0,0,1,0-12.29l71.89-71.88a1.08,1.08,0,0,1,1.85.77v21a2.2,2.2,0,0,1-.63,1.54l-60.82,60.81A8.68,8.68,0,0,1,583.9,426.63Z" transform="translate(-447.12 -273.48)"/><path class="cls-2" d="M590.05,420.49l67.59-67.59v-9.67a1.08,1.08,0,0,0-1.85-.77l-71.7,71.7a8.89,8.89,0,0,0-1,11.55,8.46,8.46,0,0,0,4.72,3.14A8.65,8.65,0,0,1,590.05,420.49Z" transform="translate(-447.12 -273.48)"/></svg>