<svg id="Layer_1" data-name="Layer 1" xmlns="http://www.w3.org/2000/svg" viewBox="0 0 253.04 253.04"><defs><style>.cls-1{fill:none;}.cls-2{fill:#f0c09b;}.cls-3{fill:#ecb086;}.cls-4{fill:#e2965b;}.cls-5{fill:#e79e6a;}</style></defs><rect class="cls-1" width="253.04" height="253.04"/><path class="cls-2" d="M644.71,318.5H624.28L622,321.78l-2.81-3.28H612l-17.72,28.12v85.27l16.46,49.46h16l2.51-3.28,2.41,3.28h13a4.93,4.93,0,0,0,4.92-4.93v-153A4.92,4.92,0,0,0,644.71,318.5Z" transform="translate(-445.84 -273.4)"/><path class="cls-2" d="M612,318.5H577.64L550.36,349v90.38l26.68,42h19.74l2.4-3.28,2.6,3.28H612a4.93,4.93,0,0,0,4.92-4.93v-153A4.92,4.92,0,0,0,612,318.5Z" transform="translate(-445.84 -273.4)"/><path class="cls-3" d="M644.71,318.5h-9.85a4.93,4.93,0,0,1,4.93,4.92v153a4.93,4.93,0,0,1-4.93,4.93h9.85a4.93,4.93,0,0,0,4.92-4.93v-153A4.92,4.92,0,0,0,644.71,318.5Z" transform="translate(-445.84 -273.4)"/><path class="cls-3" d="M612,318.5h-9.85a4.92,4.92,0,0,1,4.92,4.92v153a4.93,4.93,0,0,1-4.92,4.93H612a4.93,4.93,0,0,0,4.92-4.93v-153A4.92,4.92,0,0,0,612,318.5Z" transform="translate(-445.84 -273.4)"/><path class="cls-3" d="M495.09,318.5" transform="translate(-445.84 -273.4)"/><path class="cls-3" d="M601.51,479.9c-.07-.34-.14-.69-.17-.87-.58-3.63-1.51-7.31-2.5-11.07-2.12-8.08-4.48-13.95-7.41-18.45-3.62-5.56-8.27-11.52-15.28-13.68a2.46,2.46,0,0,0-1.45,4.71c5.51,1.69,9.46,6.84,12.6,11.66,2.64,4.05,4.8,9.45,6.78,17,.95,3.64,1.86,7.18,2.39,10.59,0,.29.13.67.22,1.11,0,.12.06.27.09.44h5c-.07-.47-.17-1-.27-1.45Z" transform="translate(-445.84 -273.4)"/><path class="cls-3" d="M607.08,369.67a10.5,10.5,0,0,1-.65-1.3c-1.7-4.23-1.36-9.83.65-14.37.41-.92,1.44-6.39,1.44-6.39s-1-2.55-1.44-2.14c-1,1-1.65,1.8-1.67,1.82-4.92,6.19-6.41,15.83-3.54,22.93a20.77,20.77,0,0,0,5.21,7c.46.42,1.44-2.1,1.44-2.1a49.76,49.76,0,0,0-1.44-5.45Z" transform="translate(-445.84 -273.4)"/><path class="cls-3" d="M607.08,417.47c-1.23-1.12-2.52-2.38-3.86-3.68-7.21-7-16.17-15.68-26.43-12.85a2.46,2.46,0,1,0,1.31,4.74c7.54-2.07,15.06,5.22,21.69,11.65a79.22,79.22,0,0,0,6.93,6.25l.36.28c.47.35,1.44-2.26,1.44-2.26s-.95-3.69-1.44-4.13Z" transform="translate(-445.84 -273.4)"/><path class="cls-4" d="M607.08,345.47V354a17,17,0,0,1,2.18-3.64c1.48-1.87,5.06-5,7.67-5.69v-5C613,340.12,609.19,343.37,607.08,345.47Z" transform="translate(-445.84 -273.4)"/><path class="cls-4" d="M607.08,417.47v6.38a52.42,52.42,0,0,0,9.85,5.8v-5.44a48.94,48.94,0,0,1-7.24-4.55c-.83-.63-1.7-1.38-2.61-2.19Z" transform="translate(-445.84 -273.4)"/><path class="cls-4" d="M607.08,369.67v7.55a19.21,19.21,0,0,0,9.85,5v-5c-4.12-.9-8-4.53-9.85-7.56Z" transform="translate(-445.84 -273.4)"/><path class="cls-3" d="M577,481.35H543.09l-2.38-1-2.55,1H508.31a4.93,4.93,0,0,1-4.92-4.93v-153a4.92,4.92,0,0,1,4.92-4.92H577a4.93,4.93,0,0,1,4.93,4.92v153a4.93,4.93,0,0,1-4.93,4.93Z" transform="translate(-445.84 -273.4)"/><path class="cls-5" d="M577,318.5H567.2a4.92,4.92,0,0,1,4.92,4.92v153a4.93,4.93,0,0,1-4.92,4.93H577a4.93,4.93,0,0,0,4.93-4.93V460.09l-.66-5.64L582,449V416l-.66-4.72.66-2.92V366.9l-1-2.25,1-2.67V323.42A4.93,4.93,0,0,0,577,318.5Z" transform="translate(-445.84 -273.4)"/><path class="cls-2" d="M521.57,350a91.79,91.79,0,0,0,14.6,27.49A89.84,89.84,0,0,0,552,393.36,109.56,109.56,0,0,0,563.52,401l2.47,1.44a38.8,38.8,0,0,1,6.13,4l2-1.69-2-4.31a30.63,30.63,0,0,0-3.66-2.27c-.81-.47-1.62-.94-2.42-1.42a104.25,104.25,0,0,1-11-7.32,84.73,84.73,0,0,1-15-15,87.1,87.1,0,0,1-13.83-26,84.93,84.93,0,0,1-3.39-14.37,113,113,0,0,1-1.29-15.63h-4.92A119,119,0,0,0,518,334.84,89.71,89.71,0,0,0,521.57,350Z" transform="translate(-445.84 -273.4)"/><path class="cls-2" d="M540.91,337.28A35.16,35.16,0,0,0,555,359.36a36.37,36.37,0,0,0,17.1,6.61l1-2.28-1-2.72a30.68,30.68,0,0,1-14.3-5.67,30.25,30.25,0,0,1-12.09-19q-.15-.73-.33-1.56c-.82-3.75-1.81-12.38-.52-16.22h-5.06c-1.14,5.4-.13,13.14.77,17.27C540.71,336.3,540.82,336.81,540.91,337.28Z" transform="translate(-445.84 -273.4)"/><path class="cls-2" d="M538.49,467.82a58.62,58.62,0,0,0-8.17-12.32c-1.75-2-3.62-3.8-5.43-5.52-3.45-3.31-6.71-6.42-8.82-10.72l-.43-.86c-2.53-5.17-5.63-11.49-12.25-13.15v5.2c3.68,1.63,5.78,5.93,7.83,10.11l.43.88c2.5,5.07,6.23,8.64,9.84,12.09,1.73,1.65,3.52,3.36,5.13,5.21A53.59,53.59,0,0,1,534.09,470c.34.69.71,1.38,1.07,2.05,1.68,3.17,3.26,6.16,3,9.27h4.93c.23-4.38-1.79-8.2-3.59-11.58C539.14,469.1,538.81,468.46,538.49,467.82Z" transform="translate(-445.84 -273.4)"/><path class="cls-2" d="M572.12,435.78a25.34,25.34,0,0,0-5.55-3.76,79.32,79.32,0,0,0-12.75-4.59,82.25,82.25,0,0,1-10.74-3.7c-8.94-4-15.71-10.62-22.88-17.6-5.19-5.05-10.54-10.27-16.81-14.44v6a138.21,138.21,0,0,1,13.37,11.94c7.16,7,14.57,14.19,24.3,18.57a87.57,87.57,0,0,0,11.37,3.93,75.38,75.38,0,0,1,12,4.28,23.54,23.54,0,0,1,7.62,6.31c.73.88,2.09-.92,2.09-.92s-1.3-5.44-2-6Z" transform="translate(-445.84 -273.4)"/><path class="cls-4" d="M581.68,415.66a1.93,1.93,0,0,0,.29.35v-7.64a64.22,64.22,0,0,0-9.85-7.88v6C575.89,409.24,579.6,412.52,581.68,415.66Z" transform="translate(-445.84 -273.4)"/><path class="cls-4" d="M582,460.09V449c-2.62-4.85-5.76-9.65-9.85-13.26v7.08c3.81,4.64,6.66,10.59,9.29,16.07.19.39.37.78.56,1.16Z" transform="translate(-445.84 -273.4)"/><path class="cls-4" d="M572.12,366a61.39,61.39,0,0,0,9.85.93V362a57.13,57.13,0,0,1-9.85-1Z" transform="translate(-445.84 -273.4)"/><path class="cls-3" d="M639.79,400.77c-.24-.23-.47-.47-.71-.71-2.94-3-6-6.14-9.62-7.92-2.86-1.41-5.75-1.13-8.07-.92-1.84.18-4.23.33-5.4-.31-1.87-1-4.45.63-3.44,3.63,2.8,2.12,6.66,1.83,9.3,1.58,2-.19,3.83-.35,5.44.44,2.88,1.4,5.62,4.21,8.27,6.93,1,1.07,2.12,2.18,3.2,3.2.34.32.68.62,1,.92s1.08-2.38,1.08-2.38-.72-4.08-1.08-4.46Z" transform="translate(-445.84 -273.4)"/><path class="cls-3" d="M639.79,449.39c-6.85,4.57-12.53,13.87-13,32h4.92c.26-8.8,1.83-15.86,4.7-21a21.36,21.36,0,0,1,3.4-4.6,21.84,21.84,0,0,0,1.07-3.86s-.72-2.74-1.07-2.5Z" transform="translate(-445.84 -273.4)"/><path class="cls-3" d="M639.79,353.05a138.06,138.06,0,0,1-6.46-15.51c-.46-1.25-.88-2.57-1.29-3.85a62.16,62.16,0,0,0-2.41-6.61,29.35,29.35,0,0,0-3.11-5.1,31.81,31.81,0,0,1-2.24-3.48h-5.13a2.57,2.57,0,0,0,.19,1.05,27.87,27.87,0,0,0,3.16,5.27,25.57,25.57,0,0,1,2.64,4.27,59.33,59.33,0,0,1,2.21,6.11c.43,1.32.86,2.69,1.36,4,2.68,7.28,6,16.33,11.13,23.38.34.47,1-2.34,1-2.34a71.83,71.83,0,0,0-1.07-7.23Z" transform="translate(-445.84 -273.4)"/><path class="cls-4" d="M649.63,445.67a24.19,24.19,0,0,0-9.84,3.72v6.36a18,18,0,0,1,9.84-5.08Z" transform="translate(-445.84 -273.4)"/><path class="cls-4" d="M643.82,359.72a51.11,51.11,0,0,1-4-6.67v9.49a.56.56,0,0,1,.05.08c3.29,4.51,6.47,7.64,9.79,9.6v-6A36.36,36.36,0,0,1,643.82,359.72Z" transform="translate(-445.84 -273.4)"/><path class="cls-4" d="M642.13,403.1c-.77-.73-1.55-1.51-2.34-2.32v6.83a25,25,0,0,0,9.84,5.36V407.8a20.78,20.78,0,0,1-7.5-4.7Z" transform="translate(-445.84 -273.4)"/></svg>